# xmcd
#
# Track frame offsets:
# 150
# 14282
# 27957
# 40812
# 64492
# 83962
# 96770
# 111797
# 132730
# 157165
# 171507
#
# Disc length: 2607 seconds
#
#
# Revision: 1
# Processed by: cddbd v1.5PL3 Copyright (c) Steve Scherf et al.
# Submitted via: FreeRIP 2.60 
#
DISCID=9a0a2d0b
DTITLE=Jamil Sharif - Jamillennium
DYEAR=1999
DGENRE=Blues
TTITLE0=Beale Street Blues
TTITLE1=Potato Head Blues
TTITLE2=Weather Bird Rag
TTITLE3=Saint James Infirmary
TTITLE4=When The Saints Go Marching In
TTITLE5=Rhythm In Spain
TTITLE6=Sweet Georgia Brown
TTITLE7=Sick And Tired
TTITLE8=Vee Vee
TTITLE9=I Like 'Em Fat Like That
TTITLE10=Peep Diggidy
EXTD=YEAR: 1999
EXTT0=
EXTT1=
EXTT2=
EXTT3=
EXTT4=
EXTT5=
EXTT6=
EXTT7=
EXTT8=
EXTT9=
EXTT10=
PLAYORDER=
